<svg width="1600" height="1000" viewBox="0 0 1600 1000" fill="none" xmlns="http://www.w3.org/2000/svg" role="img" aria-labelledby="title desc">
  <title id="title">Resonate deployment architecture</title>
  <desc id="desc">A deployment architecture diagram for Resonate showing clients, a global HTTPS edge with managed TLS and Cloud Armor, Cloud Run services, private data services, Pub/Sub Demucs processing, x402 settlement, ERC-4337 smart accounts, protocol contracts, and GitHub/Terraform delivery.</desc>
  <defs>
    <linearGradient id="bg" x1="60" y1="20" x2="1540" y2="970" gradientUnits="userSpaceOnUse">
      <stop stop-color="#F8FBFF"/>
      <stop offset="0.5" stop-color="#F7FFF8"/>
      <stop offset="1" stop-color="#FFF9F1"/>
    </linearGradient>
    <filter id="shadow" x="-20%" y="-20%" width="140%" height="140%">
      <feDropShadow dx="0" dy="12" stdDeviation="13" flood-color="#101828" flood-opacity="0.12"/>
    </filter>
    <marker id="blueArrow" markerWidth="12" markerHeight="12" refX="10" refY="6" orient="auto">
      <path d="M1 1L11 6L1 11Z" fill="#2563EB"/>
    </marker>
    <marker id="greenArrow" markerWidth="12" markerHeight="12" refX="10" refY="6" orient="auto">
      <path d="M1 1L11 6L1 11Z" fill="#0F766E"/>
    </marker>
    <marker id="orangeArrow" markerWidth="12" markerHeight="12" refX="10" refY="6" orient="auto">
      <path d="M1 1L11 6L1 11Z" fill="#C2410C"/>
    </marker>
    <style>
      .page { fill: url(#bg); }
      .zone { fill: #FFFFFF; stroke: #CBD5E1; stroke-width: 2; rx: 24; }
      .panel { fill: #FFFFFF; stroke: #D8E0EA; stroke-width: 1.5; rx: 14; filter: url(#shadow); }
      .sub { fill: #F8FAFC; stroke: #D8E0EA; stroke-width: 1.3; rx: 12; }
      .edge { fill: #DBEAFE; stroke: #93C5FD; stroke-width: 1.5; rx: 12; }
      .secure { fill: #DCFCE7; stroke: #86EFAC; stroke-width: 1.5; rx: 12; }
      .data { fill: #CCFBF1; stroke: #5EEAD4; stroke-width: 1.5; rx: 12; }
      .chain { fill: #FFEDD5; stroke: #FDBA74; stroke-width: 1.5; rx: 12; }
      .payment { fill: #EDE9FE; stroke: #C4B5FD; stroke-width: 1.5; rx: 12; }
      .ops { fill: #F1F5F9; stroke: #CBD5E1; stroke-width: 1.5; rx: 12; }
      .title { fill: #101828; font-family: Inter, Segoe UI, Arial, sans-serif; font-size: 42px; font-weight: 800; letter-spacing: 0; }
      .subtitle { fill: #475467; font-family: Inter, Segoe UI, Arial, sans-serif; font-size: 18px; font-weight: 500; letter-spacing: 0; }
      .h { fill: #101828; font-family: Inter, Segoe UI, Arial, sans-serif; font-size: 20px; font-weight: 800; letter-spacing: 0; }
      .label { fill: #111827; font-family: Inter, Segoe UI, Arial, sans-serif; font-size: 16px; font-weight: 750; letter-spacing: 0; }
      .small { fill: #475467; font-family: Inter, Segoe UI, Arial, sans-serif; font-size: 13px; font-weight: 520; letter-spacing: 0; }
      .tiny { fill: #667085; font-family: Inter, Segoe UI, Arial, sans-serif; font-size: 11px; font-weight: 650; letter-spacing: 0; }
      .blueLine { stroke: #2563EB; stroke-width: 2.5; marker-end: url(#blueArrow); opacity: 0.86; }
      .greenLine { stroke: #0F766E; stroke-width: 2.5; marker-end: url(#greenArrow); opacity: 0.86; }
      .orangeLine { stroke: #C2410C; stroke-width: 2.5; marker-end: url(#orangeArrow); opacity: 0.86; }
      .dash { stroke-dasharray: 7 7; }
    </style>
  </defs>

  <rect class="page" x="0" y="0" width="1600" height="1000"/>
  <text x="70" y="74" class="title">Resonate deployment architecture</text>
  <text x="72" y="108" class="subtitle">Music marketplace, agent-native commerce, smart accounts, AI stem processing, and Terraform-managed GCP edge delivery.</text>

  <rect x="55" y="150" width="210" height="700" class="zone"/>
  <text x="82" y="188" class="h">Clients</text>
  <rect x="82" y="220" width="156" height="136" class="panel"/>
  <text x="106" y="256" class="label">Human studio</text>
  <text x="106" y="284" class="small">Artists, listeners,</text>
  <text x="106" y="304" class="small">curators, admins</text>
  <text x="106" y="332" class="tiny">Browser + passkey wallet</text>
  <rect x="82" y="396" width="156" height="150" class="panel"/>
  <text x="106" y="432" class="label">AI agents</text>
  <text x="106" y="460" class="small">MCP clients, scripts,</text>
  <text x="106" y="480" class="small">automation buyers</text>
  <text x="106" y="508" class="tiny">OpenAPI + x402 receipts</text>
  <rect x="82" y="586" width="156" height="132" class="panel"/>
  <text x="106" y="622" class="label">Operators</text>
  <text x="106" y="650" class="small">GitHub approvals,</text>
  <text x="106" y="670" class="small">environment deploys</text>

  <rect x="300" y="150" width="790" height="700" class="zone"/>
  <text x="328" y="188" class="h">Google Cloud runtime</text>

  <rect x="330" y="220" width="720" height="128" class="panel"/>
  <text x="354" y="254" class="label">Global HTTPS edge</text>
  <rect x="355" y="282" width="118" height="38" class="edge"/>
  <text x="378" y="306" class="small">DNS</text>
  <rect x="493" y="282" width="160" height="38" class="edge"/>
  <text x="513" y="306" class="small">Managed TLS</text>
  <rect x="673" y="282" width="168" height="38" class="edge"/>
  <text x="692" y="306" class="small">HTTPS LB</text>
  <rect x="861" y="282" width="150" height="38" class="secure"/>
  <text x="884" y="306" class="small">Cloud Armor</text>

  <rect x="330" y="390" width="345" height="250" class="panel"/>
  <text x="354" y="424" class="label">Application containers</text>
  <rect x="358" y="454" width="278" height="42" class="sub"/>
  <text x="382" y="481" class="small">Cloud Run frontend - Next.js</text>
  <rect x="358" y="516" width="278" height="42" class="sub"/>
  <text x="382" y="543" class="small">Cloud Run backend - NestJS API</text>
  <rect x="358" y="578" width="278" height="42" class="sub"/>
  <text x="382" y="605" class="small">Cloud Run Demucs Job - on demand</text>

  <rect x="705" y="390" width="345" height="250" class="panel"/>
  <text x="729" y="424" class="label">Private data and media</text>
  <rect x="733" y="454" width="125" height="42" class="data"/>
  <text x="757" y="481" class="small">Cloud SQL</text>
  <rect x="878" y="454" width="125" height="42" class="data"/>
  <text x="915" y="481" class="small">Redis</text>
  <rect x="733" y="516" width="125" height="42" class="data"/>
  <text x="765" y="543" class="small">GCS</text>
  <rect x="878" y="516" width="125" height="42" class="data"/>
  <text x="900" y="543" class="small">Secrets</text>
  <rect x="733" y="578" width="270" height="42" class="data"/>
  <text x="775" y="605" class="small">Pub/Sub jobs, results, DLQ</text>

  <rect x="330" y="672" width="720" height="132" class="panel"/>
  <text x="354" y="706" class="label">Delivery and operations</text>
  <rect x="358" y="734" width="155" height="40" class="ops"/>
  <text x="381" y="759" class="small">GitHub Actions</text>
  <rect x="535" y="734" width="170" height="40" class="ops"/>
  <text x="557" y="759" class="small">Artifact Registry</text>
  <rect x="727" y="734" width="136" height="40" class="ops"/>
  <text x="758" y="759" class="small">Terraform</text>
  <rect x="885" y="734" width="128" height="40" class="ops"/>
  <text x="916" y="759" class="small">Monitoring</text>

  <rect x="1130" y="150" width="415" height="700" class="zone"/>
  <text x="1158" y="188" class="h">Protocol and payments</text>
  <rect x="1160" y="220" width="350" height="178" class="panel"/>
  <text x="1184" y="254" class="label">Smart account layer</text>
  <rect x="1188" y="284" width="135" height="42" class="chain"/>
  <text x="1214" y="311" class="small">Bundler</text>
  <rect x="1343" y="284" width="135" height="42" class="chain"/>
  <text x="1366" y="311" class="small">EntryPoint</text>
  <rect x="1188" y="342" width="290" height="42" class="chain"/>
  <text x="1230" y="369" class="small">Kernel smart accounts + sessions</text>

  <rect x="1160" y="438" width="350" height="176" class="panel"/>
  <text x="1184" y="472" class="label">Resonate contracts</text>
  <text x="1188" y="506" class="small">StemNFT, marketplace, content protection,</text>
  <text x="1188" y="526" class="small">curation rewards, dispute resolution,</text>
  <text x="1188" y="546" class="small">revenue escrow, transfer validation</text>
  <rect x="1188" y="568" width="290" height="30" class="chain"/>
  <text x="1258" y="588" class="tiny">Base Sepolia / EVM deployments</text>

  <rect x="1160" y="654" width="350" height="140" class="panel"/>
  <text x="1184" y="688" class="label">x402 commerce</text>
  <rect x="1188" y="716" width="136" height="40" class="payment"/>
  <text x="1212" y="741" class="small">Challenge</text>
  <rect x="1342" y="716" width="136" height="40" class="payment"/>
  <text x="1364" y="741" class="small">Settle USDC</text>
  <text x="1188" y="776" class="tiny">Machine-readable payments and receipts</text>

  <path d="M238 270 C275 270 285 300 330 300" class="blueLine"/>
  <path d="M238 472 C275 472 285 300 330 300" class="greenLine"/>
  <path d="M1011 301 C1040 301 1052 301 1080 301" class="blueLine"/>
  <path d="M1080 301 C1100 360 1088 475 1050 475" class="blueLine"/>
  <path d="M1080 301 C1100 430 1088 537 1050 537" class="blueLine"/>
  <path d="M636 537 C662 537 682 537 705 537" class="greenLine"/>
  <path d="M636 599 C662 599 682 599 705 599" class="greenLine"/>
  <path d="M675 537 C705 490 720 475 733 475" class="greenLine"/>
  <path d="M675 537 C705 520 718 537 733 537" class="greenLine"/>
  <path d="M675 537 C704 570 720 599 733 599" class="greenLine"/>
  <path d="M636 537 C650 590 660 625 690 650 C820 650 1010 650 1088 650 C1100 700 1112 736 1160 736" class="orangeLine"/>
  <path d="M636 537 C650 480 660 420 690 360 C820 360 1020 330 1088 305 C1104 305 1120 305 1160 305" class="orangeLine"/>
  <path d="M236 652 C280 710 310 754 358 754" class="blueLine dash"/>
  <path d="M513 754 C520 754 528 754 535 754" class="blueLine"/>
  <path d="M705 754 C712 754 720 754 727 754" class="blueLine"/>
  <path d="M863 754 C870 754 878 754 885 754" class="blueLine"/>

  <rect x="70" y="890" width="1460" height="54" class="sub"/>
  <text x="96" y="922" class="small">Public traffic terminates at the edge; Cloud Run stays behind serverless NEGs. App CI publishes immutable images, while resonate-iac owns Terraform state, IAM, routing, and environment validation.</text>
</svg>
